<svg id="Layer_1" data-name="Layer 1" xmlns="http://www.w3.org/2000/svg" xmlns:xlink="http://www.w3.org/1999/xlink" viewBox="0 0 1080 1320"><defs><style>.cls-1{fill:#060a0f;}.cls-2{fill:url(#linear-gradient);}.cls-3{fill:url(#linear-gradient-2);}.cls-4{fill:#e1e1e1;}</style><linearGradient id="linear-gradient" x1="171.41" y1="757.53" x2="996.24" y2="11.6" gradientUnits="userSpaceOnUse"><stop offset="0" stop-color="#430068"/><stop offset="0.05" stop-color="#3f0870"/><stop offset="0.13" stop-color="#361f86"/><stop offset="0.23" stop-color="#2644aa"/><stop offset="0.34" stop-color="#1077db"/><stop offset="0.41" stop-color="#009cff"/><stop offset="0.67" stop-color="#00cfec"/><stop offset="0.89" stop-color="#00f2e0"/><stop offset="1" stop-color="#00ffdb"/></linearGradient><linearGradient id="linear-gradient-2" x1="420.79" y1="1033.28" x2="1245.61" y2="287.35" xlink:href="#linear-gradient"/></defs><rect class="cls-1" x="-2848.69" y="-119.34" width="8383.23" height="1769.64"/><path class="cls-2" d="M440.8,362.81c29.73-18.54,63.6-27.95,100.64-27.95,44.56,0,83.46,11.07,115.63,32.88,30.13,20.54,53.06,48.35,68.24,82.75H843.42c-17.89-64.38-51.77-116.36-100.84-154.68h0c-52.22-40.89-119.25-61.63-199.24-61.63-61.59,0-116.37,13.87-162.81,41.21S297.79,341.77,272.34,391c-18.59,35.75-30.59,75.77-35.76,119.13h27.29A118.68,118.68,0,0,0,371,442.5h0C387.49,408.23,411,381.43,440.8,362.81Z"/><path class="cls-3" d="M843.42,672.23H725.31c-15.18,34.41-38.11,62.23-68.23,82.74l-.58.4c-39.59,26.68-64.82,69.9-64.82,117.64v12.82c58.66-6.68,109.38-26.48,150.89-58.92C791.65,788.59,825.53,736.61,843.42,672.23Z"/><path class="cls-4" d="M541,1191.75c-8.84,9.75-22.36,18.33-39.39,18.33-27.56,0-45.89-17.68-45.89-46.68,0-29.9,22.49-47.84,39.52-47.84,13,0,18.85,7.28,20,8.84l3-7.28H538.7V1154H515.43c-.39-8.45-4.55-16.38-13.78-16.38s-15.47,11.57-15.47,25.74c0,12.87,6.63,24.45,19,24.45,10.92,0,19.5-11.44,20.67-12.75Z"/><path class="cls-4" d="M588.36,1117.12c30.16,0,35.88,13,35.88,27.82,0,17.16-15.6,25.74-34.19,25.74h-9.88v20.16h7.93V1208H546.24v-17.16h7.28v-56.69h-7.28v-17Zm-8.19,39.52H586c7.54,0,12.74-3.9,12.74-10.79,0-7.67-4.55-11.83-12.09-11.83h-6.5Z"/></svg>