<svg id="Layer_1" data-name="Layer 1" xmlns="http://www.w3.org/2000/svg" xmlns:xlink="http://www.w3.org/1999/xlink" viewBox="0 0 1080 1320"><defs><style>.cls-1{fill:#060a0f;}.cls-2{fill:url(#linear-gradient);}.cls-3{fill:url(#linear-gradient-2);}.cls-4{fill:#e1e1e1;}</style><linearGradient id="linear-gradient" x1="171.41" y1="757.53" x2="996.24" y2="11.6" gradientUnits="userSpaceOnUse"><stop offset="0" stop-color="#ff02ac"/><stop offset="0.31" stop-color="#ff438d"/><stop offset="1" stop-color="#ffe241"/></linearGradient><linearGradient id="linear-gradient-2" x1="420.79" y1="1033.28" x2="1245.61" y2="287.35" xlink:href="#linear-gradient"/></defs><rect class="cls-1" x="-1574.37" y="-119.34" width="8383.23" height="1769.64"/><path class="cls-2" d="M440.8,362.81c29.73-18.54,63.6-27.95,100.64-27.95,44.56,0,83.46,11.07,115.63,32.88,30.13,20.54,53.06,48.35,68.24,82.75H843.42c-17.89-64.38-51.77-116.36-100.84-154.68h0c-52.22-40.89-119.25-61.63-199.24-61.63-61.59,0-116.37,13.87-162.81,41.21S297.79,341.77,272.34,391c-18.59,35.75-30.59,75.77-35.76,119.13h27.29A118.68,118.68,0,0,0,371,442.5h0C387.49,408.23,411,381.43,440.8,362.81Z"/><path class="cls-3" d="M843.42,672.23H725.31c-15.18,34.41-38.11,62.23-68.23,82.74l-.58.4c-39.59,26.68-64.82,69.9-64.82,117.64v12.82c58.66-6.68,109.38-26.48,150.89-58.92C791.65,788.59,825.53,736.61,843.42,672.23Z"/><path class="cls-4" d="M248.74,1191.75c-8.84,9.75-22.36,18.33-39.39,18.33-27.56,0-45.9-17.68-45.9-46.68,0-29.9,22.5-47.84,39.53-47.84,13,0,18.85,7.28,20,8.84l3-7.28H246.4V1154H223.13c-.39-8.45-4.55-16.38-13.78-16.38s-15.47,11.57-15.47,25.74c0,12.87,6.63,24.45,19,24.45,10.92,0,19.5-11.44,20.67-12.75Z"/><path class="cls-4" d="M252.63,1162.1c0-28.08,18.72-47.45,45.64-47.45,31.85,0,46.67,19.11,46.67,48.36s-16.38,47.33-45.76,47.33C272,1210.34,252.63,1194.61,252.63,1162.1Zm59.81.91c0-15.73-4.29-28.34-14.3-28.34-7.94-.13-13.4,11.31-13.4,27.43,0,17,6.12,27.83,14.44,27.83S312.44,1179.13,312.44,1163Z"/><path class="cls-4" d="M390.17,1117.12v16.77h-7V1162c0,20.94,4.68,25.36,13,25.36,7.93,0,13.13-3.12,13.13-25.49v-27.56h-7v-17.16h38.49v16.77h-7v31.59c0,30.82-12.87,44.73-37.32,44.73-26.26-.78-40.3-14.56-40.3-44.08V1134h-7.28v-16.9Z"/><path class="cls-4" d="M488.19,1117.12c30.17,0,36,12,36,26.78,0,10.14-8.07,17.29-18.86,18.85,9,1.3,17,9.1,17,18.46,0,5.6.78,8.85,3.12,8.85,2,0,3-1.56,3-4.16v-4.29h8.71v7.14c0,10.8-4.55,20.81-19,20.81-17,0-25.22-9-25.22-24.18,0-11.83-1.43-14.7-13-14.7v20.16h7.93V1208h-42v-17.16h7.28v-56.69h-7.28v-17Zm-8.19,39h5.85c7.54,0,12.48-3.64,12.48-10.53,0-7.67-4.29-11.57-11.83-11.57H480Z"/><path class="cls-4" d="M541.75,1175.24h24.18c0,10.92,10.92,12.74,16.38,13,4.55,0,11.05-1,11.05-6.5,0-10.15-49.92-5.86-49.92-39,0-19.24,18.2-28,30.94-28,10.92,0,22,3.51,27.17,13.26l1.3-10.92h22.37v32.63H601.68c0-9.62-7.54-15.08-16.64-15.08-3.77,0-9,2.34-9,6.89,0,13.39,51.49,10.27,51.49,40.82,0,20.29-19,27.57-34.46,27.57-13.13,0-22.23-6.11-27.17-12l-1.43,10H541.75Z"/><path class="cls-4" d="M712.44,1117.12v28.73H690v-11.57h-20.8v17.94h24.7v17.29h-24.7v21.2H690v-12.09h22.49V1208H634.05v-17.29h8.19v-56.43h-8.19v-17.16Z"/><path class="cls-4" d="M761.19,1117.12c30.16,0,36,12,36,26.78,0,10.14-8.06,17.29-18.85,18.85,9,1.3,17,9.1,17,18.46,0,5.6.78,8.85,3.12,8.85,2,0,3-1.56,3-4.16v-4.29h8.71v7.14c0,10.8-4.55,20.81-19,20.81-17,0-25.22-9-25.22-24.18,0-11.83-1.43-14.7-13-14.7v20.16h7.93V1208h-42v-17.16h7.28v-56.69h-7.28v-17Zm-8.19,39h5.85c7.54,0,12.48-3.64,12.48-10.53,0-7.67-4.29-11.57-11.83-11.57H753Z"/><path class="cls-4" d="M864.41,1208v-17h12.35l-2.73-8.84H847.38l-2.73,8.84h10.14v17H813.45v-17h8.84l17.55-57.08h-5.33v-16.77h49.92l23,73.85h9.11v17Zm4.81-41.48-8.58-28.08-8.45,28.08Z"/></svg>