<svg id="Layer_1" data-name="Layer 1" xmlns="http://www.w3.org/2000/svg" xmlns:xlink="http://www.w3.org/1999/xlink" viewBox="0 0 1080 1320"><defs><style>.cls-1{fill:#060a0f;}.cls-2{fill:url(#linear-gradient);}.cls-3{fill:url(#linear-gradient-2);}.cls-4{fill:#e1e1e1;}</style><linearGradient id="linear-gradient" x1="76.87" y1="843.45" x2="901.16" y2="19.16" gradientUnits="userSpaceOnUse"><stop offset="0" stop-color="#430068"/><stop offset="0.05" stop-color="#3f0870"/><stop offset="0.13" stop-color="#361f86"/><stop offset="0.23" stop-color="#2644aa"/><stop offset="0.34" stop-color="#1077db"/><stop offset="0.41" stop-color="#009cff"/><stop offset="0.67" stop-color="#00cfec"/><stop offset="0.89" stop-color="#00f2e0"/><stop offset="1" stop-color="#00ffdb"/></linearGradient><linearGradient id="linear-gradient-2" x1="160.8" y1="923.28" x2="1043.1" y2="40.97" xlink:href="#linear-gradient"/></defs><rect class="cls-1" x="-7033.36" y="-119.34" width="8383.23" height="1769.64"/><path class="cls-2" d="M625.25,353.16c20.34,19.74,30.63,48,30.63,84.12,0,51.36-22.15,112.59-127.68,112.59h-3.39v85.4h17.55c73,0,129.75-18.12,168.81-53.84,38.77-35.49,58.44-84,58.44-144.15,0-61.39-19.07-110.56-56.69-146.13s-95.07-53.74-170.56-53.74h-232a86.35,86.35,0,0,0,86.35,86.35H528.2C573,323.76,604.71,333.38,625.25,353.16Z"/><path class="cls-3" d="M310.39,882.59H422.23V643.33a90.39,90.39,0,0,0-90.39-90.39H310.39Z"/><path class="cls-4" d="M279.29,1117.12c30.16,0,35.88,13,35.88,27.82,0,17.16-15.6,25.74-34.19,25.74H271.1v20.16H279V1208H237.17v-17.16h7.28v-56.69h-7.28v-17Zm-8.19,39.52H277c7.54,0,12.74-3.9,12.74-10.79,0-7.67-4.55-11.83-12.09-11.83h-6.5Z"/><path class="cls-4" d="M362.62,1117.12c30.16,0,36,12,36,26.78,0,10.14-8.06,17.29-18.85,18.85,9,1.3,17,9.1,17,18.46,0,5.6.78,8.85,3.12,8.85,1.95,0,3-1.56,3-4.16v-4.29h8.71v7.14c0,10.8-4.55,20.81-19,20.81-17,0-25.22-9-25.22-24.18,0-11.83-1.43-14.7-13-14.7v20.16h7.93V1208h-42v-17.16h7.29v-56.69h-7.29v-17Zm-8.19,39h5.85c7.54,0,12.48-3.64,12.48-10.53,0-7.67-4.29-11.57-11.83-11.57h-6.5Z"/><path class="cls-4" d="M459.34,1117.12v17.16h-8.06v56.43h8.06V1208H416.18v-17.29h8.19v-56.43h-8.19v-17.16Z"/><path class="cls-4" d="M517.84,1178.88c.26-3.64,2.08-10,4.68-16.52L534.35,1134h-6.89v-16.9h36.92V1134H558l-31.2,74H502.89l-34.46-74h-7.15v-16.9h47.85V1134h-7l11.06,29.12c2.08,6.37,3.77,12.1,4,15.74Z"/><path class="cls-4" d="M616,1208v-17h12.36l-2.74-8.84H599l-2.73,8.84h10.14v17H565v-17h8.84l17.55-57.08h-5.33v-16.77H636L659,1191h9.1v17Zm4.82-41.48-8.59-28.08-8.45,28.08Z"/><path class="cls-4" d="M759.25,1150.92H740.14v-16.64H729.21v56.43H740V1208H691.64v-17.29H702.3v-56.43H691.12v16.64H672v-33.8h87.24Z"/><path class="cls-4" d="M842.83,1117.12v28.73H820.34v-11.57h-20.8v17.94h24.7v17.29h-24.7v21.2h20.8v-12.09h22.49V1208H764.44v-17.29h8.19v-56.43h-8.19v-17.16Z"/></svg>