<svg id="Layer_1" data-name="Layer 1" xmlns="http://www.w3.org/2000/svg" xmlns:xlink="http://www.w3.org/1999/xlink" viewBox="0 0 1080 1320"><defs><style>.cls-1{fill:#060a0f;}.cls-2{fill:url(#linear-gradient);}.cls-3{fill:url(#linear-gradient-2);}.cls-4{fill:#e1e1e1;}</style><linearGradient id="linear-gradient" x1="260.15" y1="641.77" x2="741.17" y2="160.76" gradientUnits="userSpaceOnUse"><stop offset="0" stop-color="#201b6d"/><stop offset="0.13" stop-color="#361870"/><stop offset="0.4" stop-color="#6e1278"/><stop offset="0.78" stop-color="#c80784"/><stop offset="1" stop-color="#ff008c"/></linearGradient><linearGradient id="linear-gradient-2" x1="368.19" y1="824.03" x2="884.96" y2="307.25" xlink:href="#linear-gradient"/></defs><rect class="cls-1" x="-4160.3" y="-119.34" width="8383.23" height="1769.64"/><path class="cls-2" d="M460.55,340.53c16.68-14.24,38.57-21.46,65.05-21.46,30.36,0,54.86,8.58,72.83,25.49,15.57,14.69,26,33.09,31,54.8H748.91c-7.2-46.86-28.81-85.18-64.32-114-38.81-31.5-92-47.47-158.06-47.47-63.65,0-115.29,15.52-153.49,46.12-35.88,28.75-54.36,66.57-56.3,115.4h56.61c30.46,0,57.23-17.22,73.46-43A69.32,69.32,0,0,1,460.55,340.53Z"/><path class="cls-3" d="M590.3,882.13c30.46-3.14,57.31-10.66,79.93-22.39,30.66-15.91,54.08-37.23,69.59-63.38A166.92,166.92,0,0,0,763.26,710c0-39.37-8.65-71.45-25.71-95.34-17.35-24.28-38.54-42.71-63-54.8-25.71-12.7-59.63-26.51-100.81-41-19.56-6.39-37.18-12.67-52.2-18.63H341.41c17.13,24,38.2,42.47,62.58,54.95,25.31,13,58.34,26.27,98.21,39.54,31.52,10.52,56.69,20,74.83,28.08,19.12,8.57,35.25,20.18,47.91,34.5,13.41,15.18,20.21,34.48,20.21,57.35,0,25.58-8.35,46.9-24.81,63.35l-.24.24c-18.18,18-29.8,41.6-29.8,67.2Z"/><path class="cls-4" d="M266.74,1175.24h24.18c0,10.92,10.92,12.74,16.38,13,4.55,0,11.05-1,11.05-6.5,0-10.15-49.92-5.86-49.92-39,0-19.24,18.2-28,30.94-28,10.92,0,22,3.51,27.17,13.26l1.3-10.92h22.37v32.63H326.67c0-9.62-7.54-15.08-16.64-15.08-3.77,0-9,2.34-9,6.89,0,13.39,51.48,10.27,51.48,40.82,0,20.29-19,27.57-34.45,27.57-13.13,0-22.23-6.11-27.17-12l-1.43,10H266.74Z"/><path class="cls-4" d="M443,1191.75c-8.84,9.75-22.36,18.33-39.39,18.33-27.56,0-45.89-17.68-45.89-46.68,0-29.9,22.49-47.84,39.52-47.84,13,0,18.85,7.28,20,8.84l3-7.28h20.41V1154H417.41c-.39-8.45-4.55-16.38-13.78-16.38s-15.47,11.57-15.47,25.74c0,12.87,6.63,24.45,19,24.45,10.92,0,19.5-11.44,20.67-12.75Z"/><path class="cls-4" d="M490.34,1117.12v17.16h-8.06v19.63H507v-19.63h-7.67v-17.16h42.25v17.16H534v56.56h7.54V1208H499.31v-17.16H507v-19.63h-24.7v19.63h8.06V1208H448.22v-17.16h7.15v-56.56h-7.15v-17.16Z"/><path class="cls-4" d="M546.76,1162.1c0-28.08,18.72-47.45,45.63-47.45,31.85,0,46.67,19.11,46.67,48.36s-16.38,47.33-45.76,47.33C566.13,1210.34,546.76,1194.61,546.76,1162.1Zm59.8.91c0-15.73-4.29-28.34-14.3-28.34-7.93-.13-13.39,11.31-13.39,27.43,0,17,6.11,27.83,14.43,27.83S606.56,1179.13,606.56,1163Z"/><path class="cls-4" d="M643,1162.1c0-28.08,18.72-47.45,45.63-47.45,31.85,0,46.67,19.11,46.67,48.36s-16.38,47.33-45.76,47.33C662.33,1210.34,643,1194.61,643,1162.1Zm59.8.91c0-15.73-4.29-28.34-14.3-28.34-7.93-.13-13.39,11.31-13.39,27.43,0,17,6.11,27.83,14.43,27.83S702.76,1179.13,702.76,1163Z"/><path class="cls-4" d="M781.54,1117.12v17.16h-6.89v56.43h16.77v-16.52h21.84V1208h-72.8v-17.29h7.15v-56.43h-7.15v-17.16Z"/></svg>