<svg id="Layer_1" data-name="Layer 1" xmlns="http://www.w3.org/2000/svg" xmlns:xlink="http://www.w3.org/1999/xlink" viewBox="0 0 1080 1320"><defs><style>.cls-1{fill:#060a0f;}.cls-2{fill:url(#linear-gradient);}.cls-3{fill:#e1e1e1;}</style><linearGradient id="linear-gradient" x1="117.35" y1="977.56" x2="908.71" y2="186.19" gradientUnits="userSpaceOnUse"><stop offset="0" stop-color="#201b6d"/><stop offset="0.13" stop-color="#361870"/><stop offset="0.4" stop-color="#6e1278"/><stop offset="0.78" stop-color="#c80784"/><stop offset="1" stop-color="#ff008c"/></linearGradient></defs><rect class="cls-1" x="-163" y="-119.34" width="8383.23" height="1769.64"/><path class="cls-2" d="M323.78,456.29H274.12l150.2,424.17H578.94L805.88,239.54H752.64a91.45,91.45,0,0,0-86.58,62L501.13,786.8,410.41,518.45A91.46,91.46,0,0,0,323.78,456.29Z"/><path class="cls-3" d="M476.24,1178.88c.26-3.64,2.08-10,4.68-16.52L492.75,1134h-6.89v-16.9h36.92V1134h-6.37l-31.2,74H461.29l-34.46-74h-7.15v-16.9h47.85V1134h-7l11.05,29.12c2.08,6.37,3.77,12.1,4,15.74Z"/><path class="cls-3" d="M567.89,1117.12v17.16h-8.06v56.43h8.06V1208H524.72v-17.29h8.19v-56.43h-8.19v-17.16Z"/><path class="cls-3" d="M660.32,1150.92H641.2v-16.64H630.28v56.43h10.79V1208H592.71v-17.29h10.66v-56.43H592.19v16.64H573.08v-33.8h87.24Z"/></svg>