<svg id="Layer_1" data-name="Layer 1" xmlns="http://www.w3.org/2000/svg" xmlns:xlink="http://www.w3.org/1999/xlink" viewBox="0 0 1080 1320"><defs><style>.cls-1{fill:#060a0f;}.cls-2{fill:url(#linear-gradient);}.cls-3{fill:url(#linear-gradient-2);}.cls-4{fill:#e1e1e1;}</style><linearGradient id="linear-gradient" x1="120.94" y1="1195.36" x2="950.99" y2="365.31" gradientUnits="userSpaceOnUse"><stop offset="0" stop-color="#ff02ac"/><stop offset="0.31" stop-color="#ff438d"/><stop offset="1" stop-color="#ffe241"/></linearGradient><linearGradient id="linear-gradient-2" x1="-55.74" y1="962.36" x2="779.09" y2="127.53" xlink:href="#linear-gradient"/></defs><rect class="cls-1" x="-5638.47" y="-119.34" width="8383.23" height="1769.64"/><path class="cls-2" d="M814.87,310.25l-95,480.86L606.35,350.28V730.17l39.29,152.45H793.35L951.47,237.38H903.54A90.39,90.39,0,0,0,814.87,310.25Z"/><path class="cls-3" d="M396.55,815,502.14,408.5V237.38h-54.7L305.68,791.21,253.77,528.45a90.39,90.39,0,0,0-88.67-72.87H128.53l104.73,427h75.81A90.38,90.38,0,0,0,396.55,815Z"/><path class="cls-4" d="M369.57,1178.62c.26-3.65,3.77-19.9,6.37-32.25l6.5-29.25h27l8.19,35.88a258.1,258.1,0,0,1,3.9,25.62h.65c.52-5.86,2.73-19.38,3.9-24.84l4.42-19.76h-7.15v-16.9h37.18V1134h-7.15l-19.37,74H403.24l-7.8-31c-1.17-4.42-2.6-12.09-3.25-16.12h-.52c-.52,3.91-2.21,12.09-3.12,15.87l-7.93,31.2H350.46l-17.16-74H326v-16.9h42.9V1134h-7.54l3.38,19c1.43,6.24,3.64,21.71,4.16,25.62Z"/><path class="cls-4" d="M461.22,1162.1c0-28.08,18.72-47.45,45.63-47.45,31.85,0,46.67,19.11,46.67,48.36s-16.38,47.33-45.76,47.33C480.59,1210.34,461.22,1194.61,461.22,1162.1Zm59.8.91c0-15.73-4.29-28.34-14.3-28.34-7.93-.13-13.39,11.31-13.39,27.43,0,17,6.11,27.83,14.43,27.83S521,1179.13,521,1163Z"/><path class="cls-4" d="M601,1117.12c30.16,0,36,12,36,26.78,0,10.14-8.06,17.29-18.85,18.85,9,1.3,17,9.1,17,18.46,0,5.6.78,8.85,3.12,8.85,2,0,3-1.56,3-4.16v-4.29H650v7.14c0,10.8-4.55,20.81-19,20.81-17,0-25.22-9-25.22-24.18,0-11.83-1.43-14.7-13-14.7v20.16h7.93V1208h-42v-17.16H566v-56.69h-7.28v-17Zm-8.19,39h5.85c7.54,0,12.48-3.64,12.48-10.53,0-7.67-4.29-11.57-11.83-11.57h-6.5Z"/><path class="cls-4" d="M688.46,1133.89v21.19l24.18-21.19h-9.36v-16.77h43.29v16.77H739l-18.85,16.25,26.26,41H754V1208h-50.7v-16.9h8.84l-14-22.1-9.62,8.18v13.92h7V1208h-41v-16.9h7v-57.21h-7v-16.77h41v16.77Z"/></svg>